<svg width="80" height="64" viewBox="0 0 80 64" fill="none" xmlns="http://www.w3.org/2000/svg">
<rect x="25" y="12" width="6" height="32" rx="3" fill="#B8E986"/>
<rect x="49" y="7" width="6" height="32" rx="3" fill="#B8E986"/>
<rect x="36" width="8" height="64" rx="4" fill="#B8E986"/>
<path d="M44 32L43.5 34C42.3954 34 43 34.8954 43 36L43.5 37C43.5 38.1046 44.3954 39 45.5 39H52C53.1046 39 53 38.1046 53 37V36C53 34.8954 52.1046 34 51 34L49 32C49 32.8284 47.3284 33.5 46.5 33.5C45.6716 33.5 44 32.8284 44 32Z" fill="#B8E986"/>
<path d="M31 37L29 39C27.8954 39 27 40.8954 27 42C27 43.1046 26.8954 44 28 44H34.5C35.6046 44 36.5 43.1046 36.5 42L37 41C37 39.8954 38.1046 39 37 39L36 37C36 37.8284 34.3284 38.5 33.5 38.5C32.6716 38.5 31 37.8284 31 37Z" fill="#B8E986"/>
<path d="M16.9706 14L0 30.9706L16.9706 47.9411V39.4558L8.48528 30.9706L16.9706 22.4853V14Z" fill="#C1C1C1"/>
<path d="M63 47.9411L79.9706 30.9706L63 14V22.4853L71.4853 30.9706L63 39.4558V47.9411Z" fill="#C1C1C1"/>
</svg>
